<svg xmlns="http://www.w3.org/2000/svg" xmlns:xlink="http://www.w3.org/1999/xlink" viewBox="0 0 673.61 417.72"><defs><style>.cls-1,.cls-3{fill:#92e3a9;}.cls-13,.cls-2,.cls-6{fill:#fff;}.cls-2{opacity:0.7;isolation:isolate;}.cls-10,.cls-12,.cls-14,.cls-15,.cls-3,.cls-4,.cls-5,.cls-6{stroke:#263238;}.cls-10,.cls-12,.cls-14,.cls-15,.cls-16,.cls-3,.cls-4,.cls-5,.cls-6,.cls-8,.cls-9{stroke-linecap:round;}.cls-10,.cls-14,.cls-15,.cls-16,.cls-3,.cls-4,.cls-5,.cls-6,.cls-8,.cls-9{stroke-linejoin:round;}.cls-12,.cls-15,.cls-16,.cls-4,.cls-8,.cls-9{fill:none;}.cls-11,.cls-5{fill:#263238;}.cls-7{opacity:0.2;}.cls-8,.cls-9{stroke:#000;}.cls-12,.cls-15,.cls-9{stroke-width:2px;}.cls-10{fill:#636363;}.cls-12{stroke-miterlimit:10;}.cls-14{fill:#b8b8b8;}.cls-16{stroke:#6b6b6b;}</style></defs><g id="Camada_2" data-name="Camada 2"><g id="Camada_1-2" data-name="Camada 1"><g id="freepik--background-simple--inject-23"><path id="svg_1" data-name="svg 1" class="cls-1" d="M70.53,417.22H636.35a62.45,62.45,0,0,0,4.57-10.31c5.21-14.58,9.23-35,10.28-40.59,9.48-50.38,6.85-109.69-11.09-157.82-9.81-26.3-29.33-47.16-49.09-65.43-21-19.39-41.67-38.66-62.66-58C485.81,46,432.67,3,374,.19c-62-3-108.56,30-146.63,78.08-37.64,47.56-92.83,84.58-144,113.44-45.3,25.54-75.76,75.62-69.39,131,4.36,37.91,27.62,72,56.57,94.51Z"/><path id="svg_2" data-name="svg 2" class="cls-2" d="M70.53,417.22H636.35a62.45,62.45,0,0,0,4.57-10.31c5.21-14.58,9.23-35,10.28-40.59,9.48-50.38,6.85-109.69-11.09-157.82-9.81-26.3-29.33-47.16-49.09-65.43-21-19.39-41.67-38.66-62.66-58C485.81,46,432.67,3,374,.19c-62-3-108.56,30-146.63,78.08-37.64,47.56-92.83,84.58-144,113.44-45.3,25.54-75.76,75.62-69.39,131,4.36,37.91,27.62,72,56.57,94.51Z"/></g><g id="freepik--Plants--inject-23"><path id="svg_3" data-name="svg 3" class="cls-3" d="M33.28,196.31s-4.19,11.53-13.1,13.1S-4.45,193.69,5.51,184.78,29.11,190,33.28,196.31Z"/><path id="svg_4" data-name="svg 4" class="cls-3" d="M46.91,139.71s-13.1,32-7.86,47.69,37.73,27.25,47.16,6.81S74.68,145,66.82,138.66,49.53,134.47,46.91,139.71Z"/><path id="svg_5" data-name="svg 5" class="cls-3" d="M123.42,153.33s-22.54,20.44-25.16,40.88,12.58,27.78,28.3,25.15,23.58-42.44,18.87-60.79S123.42,153.33,123.42,153.33Z"/><path id="svg_6" data-name="svg 6" class="cls-3" d="M127.61,266.53s-25.15,1.05-26.2,13.1,11,14.67,23.06,4.19S138.11,267.05,127.61,266.53Z"/><path id="svg_7" data-name="svg 7" class="cls-3" d="M65.25,291.68s-2.62,12.58-12,17.3S27,303.74,36,288.54,60.53,285.4,65.25,291.68Z"/><path id="svg_8" data-name="svg 8" class="cls-3" d="M43.24,252.38s-4.72-10.48-23.06-3.67S-5.5,266,6,269.71,43.24,252.38,43.24,252.38Z"/><path id="svg_9" data-name="svg 9" class="cls-3" d="M95.64,126.61s3.15,7.33,9.44,5.76,7.86-11,17.81-8.38,18.35,14.15,18.35,8.91S128.66,114,114.51,114,96.17,119.8,95.64,126.61Z"/><line id="svg_10" data-name="svg 10" class="cls-4" x1="59.64" y1="157.01" x2="58.15" y2="149.84"/><path id="svg_11" data-name="svg 11" class="cls-4" d="M83,336.53s2.35-43.85,0-71.25-13.31-59.52-13.31-59.52l-9.39-45.42"/><line id="svg_12" data-name="svg 12" class="cls-4" x1="128.12" y1="171.45" x2="130.2" y2="166.74"/><path id="svg_13" data-name="svg 13" class="cls-4" d="M88.51,336.53s.79-36,3.92-59.51,15.68-60.29,15.68-60.29l18.79-42.47"/><line id="svg_14" data-name="svg 14" class="cls-4" x1="119.68" y1="276.3" x2="123.25" y2="275.06"/><path id="svg_15" data-name="svg 15" class="cls-4" d="M93.21,337.32c3.13-53.25,8.61-54.82,8.61-54.82l15-5.22"/><path id="svg_16" data-name="svg 16" class="cls-4" d="M46.53,296c-1.07.57-2.16,1.2-3.28,1.92"/><path id="svg_17" data-name="svg 17" class="cls-4" d="M75.2,335.75s1.57-28.19-1.57-38.37-8.38-5.7-8.38-5.7-6.41-1.14-15.53,2.79"/><path id="svg_18" data-name="svg 18" class="cls-4" d="M78.8,286.64c4.09,22.95.31,48.36.31,48.36"/><path id="svg_19" data-name="svg 19" class="cls-4" d="M15.8,259.4c-1.17.54-2.29,1.13-3.36,1.75"/><path id="svg_20" data-name="svg 20" class="cls-4" d="M77.56,280.78a70.75,70.75,0,0,0-2.36-7.67c-9.4-25.06-32-20.73-32-20.73a106.8,106.8,0,0,0-22.46,5"/><path id="svg_21" data-name="svg 21" class="cls-3" d="M137.41,228.11s4.72-10.49,23.06-3.67,25.68,17.29,14.15,21-37.21-17.33-37.21-17.33Z"/><path id="svg_22" data-name="svg 22" class="cls-4" d="M117.35,232.69c-4.53,3.11-8.89,8.12-11.9,16.14-9.4,25.06-8.32,86.92-8.32,86.92"/><path id="svg_23" data-name="svg 23" class="cls-4" d="M121.79,230.23a29,29,0,0,1,15.62-2.12s8-3.88,22.61,6.7"/><path id="svg_24" data-name="svg 24" class="cls-4" d="M58,212.29a74,74,0,0,1,13.3,24c12.52,36,17.22,82.22,14.87,99.45"/><line id="svg_25" data-name="svg 25" class="cls-4" x1="14.49" y1="194.81" x2="11.45" y2="194.57"/><path id="svg_26" data-name="svg 26" class="cls-4" d="M55.27,209.31c-11.06-11.3-22-13-22-13L17.41,195"/><path id="svg_27" data-name="svg 27" class="cls-4" d="M89.81,246c-.76,45.46-1.3,90.53-1.3,90.53"/><path id="svg_28" data-name="svg 28" class="cls-4" d="M119.59,119a25.61,25.61,0,0,1,6.14,2.49"/><path id="svg_29" data-name="svg 29" class="cls-4" d="M89.91,240.35c.52-30.06,1.13-59.48,1.73-75.31,1.57-40.72,4-38.43,4-38.43s7.38-8.13,18.17-8.28"/><path id="svg_30" data-name="svg 30" class="cls-5" d="M111.11,416.41H65.16a9.55,9.55,0,0,1-9.51-8.64L48.58,335h79.09l-7.07,72.8a9.57,9.57,0,0,1-9.49,8.61Z"/><polygon id="svg_31" data-name="svg 31" class="cls-6" points="50.93 359.24 51.77 367.86 124.47 367.86 125.31 359.24 50.93 359.24"/><polygon id="svg_32" data-name="svg 32" class="cls-6" points="122.65 386.65 123.1 381.95 53.14 381.95 53.59 386.65 122.65 386.65"/><path id="svg_33" data-name="svg 33" class="cls-6" d="M110.44,349.06a6.27,6.27,0,1,0,6.28-6.26h0A6.27,6.27,0,0,0,110.44,349.06Z"/><path id="svg_34" data-name="svg 34" class="cls-6" d="M60.32,355.33A6.27,6.27,0,1,0,54.11,349v.06A6.27,6.27,0,0,0,60.32,355.33Z"/><circle id="svg_35" data-name="svg 35" class="cls-6" cx="79.12" cy="349.06" r="6.26"/><path id="svg_36" data-name="svg 36" class="cls-6" d="M91.64,349.06a6.27,6.27,0,1,0,6.28-6.26h0A6.27,6.27,0,0,0,91.64,349.06Z"/></g><g id="freepik--Graphics--inject-23"><g id="svg_37" data-name="svg 37" class="cls-7"><circle id="svg_38" data-name="svg 38" class="cls-8" cx="130.01" cy="34.87" r="21.73"/><ellipse id="svg_39" data-name="svg 39" class="cls-8" cx="130.01" cy="34.87" rx="9.56" ry="21.73"/><path id="svg_40" data-name="svg 40" class="cls-8" d="M115,19.27a21.75,21.75,0,0,0,30-.07"/><path id="svg_41" data-name="svg 41" class="cls-8" d="M115,50.62a21.73,21.73,0,0,1,30,.07"/><line id="svg_42" data-name="svg 42" class="cls-8" x1="108.28" y1="34.87" x2="151.73" y2="34.87"/></g><g id="svg_43" data-name="svg 43" class="cls-7"><rect id="svg_44" data-name="svg 44" class="cls-8" x="318.61" y="19.58" width="38.45" height="28.45" rx="4.02"/><polyline id="svg_45" data-name="svg 45" class="cls-8" points="357.16 39.11 370.33 46.72 370.33 20.9 357.13 28.52"/></g><g id="svg_46" data-name="svg 46" class="cls-7"><path id="svg_47" data-name="svg 47" class="cls-8" d="M449,39.29h0a6.05,6.05,0,0,1-6-6V21.85a6.05,6.05,0,0,1,6-6.05h0a6,6,0,0,1,6.08,6V33.24a6.05,6.05,0,0,1-6.05,6Z"/><path id="svg_48" data-name="svg 48" class="cls-9" d="M439.42,33.46a9.61,9.61,0,0,0,19.22,0"/><line id="svg_49" data-name="svg 49" class="cls-9" x1="449.03" y1="43.07" x2="449.03" y2="51.26"/><line id="svg_50" data-name="svg 50" class="cls-9" x1="442.13" y1="51.81" x2="456.1" y2="51.81"/></g><g id="svg_51" data-name="svg 51" class="cls-7"><path id="svg_52" data-name="svg 52" class="cls-8" d="M563.94,25.87a7.69,7.69,0,0,0-7.69-7.69H521.64A7.7,7.7,0,0,0,514,25.87V39.72a7.71,7.71,0,0,0,7.69,7.69h34.61a7.75,7.75,0,0,0,1.45-.14l6.24,9.85V40h0V25.87Z"/><line id="svg_53" data-name="svg 53" class="cls-8" x1="524.65" y1="27.75" x2="554.88" y2="27.75"/><line id="svg_54" data-name="svg 54" class="cls-8" x1="524.65" y1="33.17" x2="554.88" y2="33.17"/><line id="svg_55" data-name="svg 55" class="cls-8" x1="524.65" y1="38.58" x2="554.88" y2="38.58"/></g><g id="svg_56" data-name="svg 56" class="cls-7"><path id="svg_57" data-name="svg 57" class="cls-8" d="M207.17,25.87a7.7,7.7,0,0,1,7.7-7.69h34.6a7.69,7.69,0,0,1,7.69,7.69h0V39.72a7.69,7.69,0,0,1-7.69,7.69h-34.6a7.94,7.94,0,0,1-1.46-.14l-6.24,9.85V40h0V25.87Z"/><line id="svg_58" data-name="svg 58" class="cls-8" x1="246.47" y1="27.75" x2="216.23" y2="27.75"/><line id="svg_59" data-name="svg 59" class="cls-8" x1="246.47" y1="33.17" x2="216.23" y2="33.17"/><line id="svg_60" data-name="svg 60" class="cls-8" x1="246.47" y1="38.58" x2="216.23" y2="38.58"/></g></g><g id="freepik--Device--inject-23"><line id="svg_61" data-name="svg 61" class="cls-4" x1="8.11" y1="417.22" x2="673.11" y2="417.22"/><path id="svg_62" data-name="svg 62" class="cls-10" d="M152,82H612.11a10.46,10.46,0,0,1,10.46,10.46h0V394.24h-481V92.46A10.46,10.46,0,0,1,152,82Z"/><circle id="svg_63" data-name="svg 63" class="cls-11" cx="381.99" cy="91.44" r="4.22"/><path id="svg_64" data-name="svg 64" class="cls-11" d="M146.11,169.87h0a1.22,1.22,0,0,1-1.2-1.21v-35a1.2,1.2,0,0,1,1.2-1.2h0a1.2,1.2,0,0,1,1.21,1.2v35a1.21,1.21,0,0,1-1.21,1.21Z"/><rect id="svg_65" data-name="svg 65" class="cls-5" x="161.08" y="106.39" width="442.01" height="249.79"/><rect id="svg_66" data-name="svg 66" class="cls-5" x="217.89" y="389.21" width="330.6" height="6.29"/><path id="svg_67" data-name="svg 67" class="cls-5" d="M102.67,405.15s5.43,6.64,21.72,12.07H642s12.07-3,17.5-11.47Z"/><rect id="svg_68" data-name="svg 68" class="cls-10" x="101.56" y="393.26" width="559.1" height="12.68" rx="1.89"/></g><g id="freepik--character-6--inject-23"><polygon id="svg_70" data-name="svg 70" class="cls-5" points="513.89 310.45 502.23 319.86 502.03 348.81 553.98 348.81 551.32 317.2 539.25 308.82 513.89 310.45"/><path id="svg_71" data-name="svg 71" class="cls-6" d="M513.11,298.8s-.81,13.5,0,15.75,3.89,10,14.53,11c12.47,1.27,15.47-13.05,15.47-13.05l-.82-13.7s-8,1.84-14.72,1-14.7-1.8-14.7-1.8"/><path id="svg_72" data-name="svg 72" class="cls-5" d="M529.51,303.63l-11.56-5-5.08-.64.2.82s-.42,7-.35,11.79l16.79-2.84Z"/><path id="svg_73" data-name="svg 73" class="cls-6" d="M501.83,274.66s-1.44,4.5-.62,8S509,289,509,289s.62,7.57,2.46,9.61,10,8.59,13.5,9.62,6.34,1,8.59-.41,10.63-7.16,11.86-10.23a85.91,85.91,0,0,0,2.66-9s4.09-.61,5.73-3.89,1.84-8.18,1.84-9.61-4.09-4.5-6.75-6.54-18.82-11.87-21.68-12.07-6.55.82-7.77,2-17.59,16.18-17.59,16.18Z"/><path id="svg_74" data-name="svg 74" class="cls-4" d="M524.18,289.39a7,7,0,0,0,4.71,1.63c2.66-.2,3.47-1.63,3.47-1.63"/><path id="svg_75" data-name="svg 75" class="cls-4" d="M522.55,293.89s4.91,3.27,11.86,0"/><path id="svg_76" data-name="svg 76" class="cls-4" d="M523.36,280s-3.88-4.91-9-1.64"/><path id="svg_77" data-name="svg 77" class="cls-4" d="M534.21,280.18a6.37,6.37,0,0,1,7.56-2.45"/><path id="svg_78" data-name="svg 78" class="cls-11" d="M521.11,278.75a1.43,1.43,0,1,0-1.43,1.43h0A1.43,1.43,0,0,0,521.11,278.75Z"/><path id="svg_79" data-name="svg 79" class="cls-11" d="M539.11,278.75a1.43,1.43,0,1,0-1.43,1.43h0A1.43,1.43,0,0,0,539.11,278.75Z"/><path id="svg_80" data-name="svg 80" class="cls-12" d="M525.11,274.87a11.21,11.21,0,0,0-11.45.61"/><path id="svg_81" data-name="svg 81" class="cls-12" d="M544,274.87a11.21,11.21,0,0,0-11.45.61"/><path id="svg_82" data-name="svg 82" class="cls-5" d="M524.53,259.93s-2.86,6.55-5.52,9.21-7.78,4.29-7.78,4.29a29.55,29.55,0,0,1-2.25,3.69c-.61.61-.4,7.15-.4,7.77s-2.46-1.84-2.46-3.27a21.46,21.46,0,0,0-.41-3.48,14.84,14.84,0,0,1-3.27-1.84c-.82-.82-1.84-.62-1.84-2.66v-3.48s-4.5-.61-3.68-4.91,9.61-19,17.59-22.09,13.09.21,13.09.21a22,22,0,0,1,13.09-2.66c7.56.82,17.79,15.13,19.84,21.88s0,12.07-1,12.28a33.5,33.5,0,0,1-3.88.2s-.21.61-1.84,1.84a14.06,14.06,0,0,1-4.5,1.84,11.37,11.37,0,0,1-.21,4.5,10.85,10.85,0,0,1-1.22,2.46l-.82-10.84a32.76,32.76,0,0,1-10-5.32,28.06,28.06,0,0,1-6.35-7s1.85,4.09,1,4.5-6.36-3.05-7.18-7.12Z"/><path id="svg_83" data-name="svg 83" class="cls-3" d="M512.67,312.91l-2.46,35.79h-45s7.37-17.38,10.43-19.22,28-11.46,28-11.46,1.63-2.45,3.68-4.91,4.94-1.84,5.35-.2Z"/><path id="svg_84" data-name="svg 84" class="cls-4" d="M503.67,318a102.27,102.27,0,0,1-3.28,12.89c-1.63,4.29-3.68,6.75-3.47,7.57s2.86,1,4.5-1.23,5.72-8.18,7-8.18,2.25,8.59,2.25,8.59"/><path id="svg_85" data-name="svg 85" class="cls-3" d="M542.94,312.91l2.45,35.79h45S583,331.32,580,329.48,552,318,552,318s-1.64-2.45-3.69-4.91S543.35,311.27,542.94,312.91Z"/><path id="svg_86" data-name="svg 86" class="cls-4" d="M551.94,318s1.63,8.59,3.27,12.89,3.68,6.75,3.48,7.57-2.87,1-4.5-1.23-5.73-8.18-7-8.18-2.25,8.59-2.25,8.59"/><rect id="svg_69" data-name="svg 69" class="cls-13" x="458.25" y="233.59" width="139.1" height="115.11"/></g><g id="freepik--character-5--inject-23"><path id="svg_88" data-name="svg 88" class="cls-5" d="M441.11,342.85s-.94-6.16-1.25-7.09-4.41-2.77-11-6.78-29.56-17.25-29.56-17.25H361.82S338.86,325,332.26,329s-10.69,5.86-11,6.78-1.26,7.09-1.26,7.09l-.31,5.85h121.7l-.28-5.87Z"/><path id="svg_89" data-name="svg 89" class="cls-6" d="M364.05,302.18s-5.24,1.54-5.55,3.69-3.69,9.56-3.69,9.56,3.69,6.47,6.47,12,2.77,7.09,3.69,7.09,10.48-12.33,11.4-13.25,6.78.62,6.78.62,9.55,14.79,11.1,14.79,8.93-18.8,8.93-23.42S397,302.78,397,302.78l-33-.6Z"/><path id="svg_90" data-name="svg 90" class="cls-14" d="M363.11,298.17s-.92,6.78.31,10.17,12.33,21,16.33,21,14.79-17,16.64-18.79,2.16-11.1,2.16-11.1-12,5.86-21.88,2.78-13.56-4.06-13.56-4.06Z"/><path id="svg_91" data-name="svg 91" class="cls-5" d="M373.11,301.06c-7.15-2.19-9.94-2.89-9.94-2.89s-.92,6.78.31,10.17a33.31,33.31,0,0,0,2.2,4.18L380.47,307l-7.36-5.94Z"/><path id="svg_92" data-name="svg 92" class="cls-14" d="M360.66,269.82s-3.7-8.93-6.16-1.85,3.69,12,5.24,12.95S360.66,269.82,360.66,269.82Z"/><path id="svg_93" data-name="svg 93" class="cls-14" d="M401.64,269.82s3.7-8.93,6.16-1.85-3.69,12-5.24,12.95S401.64,269.82,401.64,269.82Z"/><path id="svg_94" data-name="svg 94" class="cls-14" d="M402.56,272.6s1.24-12.64-.3-22.5-14.79-15.1-24.65-13.25-16.33,7.09-17.57,16-.3,36.35.31,40.67,10.76,13.28,22.49,13.28S401,295.4,402,292,402.56,272.6,402.56,272.6Z"/><path id="svg_95" data-name="svg 95" class="cls-6" d="M379.8,282.58s-12.69,3.69-15.46,4.84-4.38,3.23-4.38,7.84,5.53,9.46,8.3,11.31,11.31,5.53,18,3.69,14.07-6.69,16.61-11.07-.7-7.85-1.39-8.77-11.53-7.84-15-7.84Z"/><path id="svg_96" data-name="svg 96" class="cls-14" d="M376.8,278.65s-.92,2.54,0,3.23A11.21,11.21,0,0,0,383,283.5c3,0,3.46-1.39,4.15-2.31s-.46-2.54-.46-2.54"/><path id="svg_97" data-name="svg 97" class="cls-14" d="M372.88,289a26,26,0,0,0,8.53,2.54c4.62.46,9.92-2.54,9.92-2.54s.46,1.39-2.07,3.93-3.69,2.62-6.93,2.76C377.26,296,373.57,291.57,372.88,289Z"/><path id="svg_98" data-name="svg 98" class="cls-14" d="M372.88,289s4.61,0,7.61-.23,10.84.23,10.84.23-7.84,5.8-18.45,0Z"/><path id="svg_99" data-name="svg 99" class="cls-11" d="M373.57,269.31a1.42,1.42,0,1,1-1.39-1.73A1.58,1.58,0,0,1,373.57,269.31Z"/><ellipse id="svg_100" data-name="svg 100" class="cls-11" cx="391.33" cy="269.31" rx="1.38" ry="1.73"/><path id="svg_101" data-name="svg 101" class="cls-4" d="M377,271.5a14.72,14.72,0,0,1-7.61,3.46"/><path id="svg_102" data-name="svg 102" class="cls-4" d="M387,272.66a11,11,0,0,0,7.84,3.23"/><path id="svg_103" data-name="svg 103" class="cls-15" d="M376.8,261.58A11.43,11.43,0,0,0,365,263.2"/><path id="svg_104" data-name="svg 104" class="cls-15" d="M386.49,261.81a9.54,9.54,0,0,1,10.38,1.62"/><rect id="svg_87" data-name="svg 87" class="cls-13" x="312.06" y="233.59" width="139.1" height="115.11"/></g><g id="freepik--character-4--inject-23"><path id="svg_106" data-name="svg 106" class="cls-5" d="M230.44,242.63s-5.32-3.93-12,.47S211.5,250,211,256.29s-.46,7.63-4.16,11.57-9,8.09-8.1,16.89,13,11.57,16.43,11.57,15.5.69,15.5.69,15.74,3,25,.23a28.44,28.44,0,0,0,13.89-9s10-.7,9.26-13.42-9-12.73-13-16.66-2.74-15.53-11.34-20.16-23.84-5.32-24.07,4.63Z"/><path id="svg_107" data-name="svg 107" class="cls-6" d="M289.91,328.8c-4.16-5.55-9.72-5.78-19.67-8.33s-19.43-6-20.36-9-3-18.28-3-18.28L235.76,293h-.65l-11.11.22s-2.08,15.27-3,18.28-10.41,6.48-20.36,9-15.5,2.78-19.67,8.33-6.48,19.9-6.48,19.9h121.9s-2.28-14.37-6.48-19.93Z"/><path id="svg_108" data-name="svg 108" class="cls-5" d="M236.49,303.93,224,293.17s-1.34,9.81-2.34,15.25Z"/><path id="svg_109" data-name="svg 109" class="cls-3" d="M289.91,328.8c-4.16-5.55-9.72-5.78-19.67-8.33-.57-.14-1.14-.29-1.7-.45a49.17,49.17,0,0,1-32.31,13c-19.36.57-30.61-9.48-33.91-13l-1.73.45c-10,2.55-15.5,2.78-19.67,8.33s-6.48,19.9-6.48,19.9h122s-2.28-14.34-6.48-19.9Z"/><path id="svg_110" data-name="svg 110" class="cls-6" d="M231.6,255.82a27.52,27.52,0,0,1-6.48,7.41c-4.17,3.24-6.25,2.54-8.1,4.86s-.23,14.58.23,19.2,9.49,13.42,12,15.51,5.79,4.63,8.1,3.47,6.25-3,14.12-13c2.15-2.72,1.62-5.79,2.08-7.4a9.64,9.64,0,0,0,.47-2.55s-2.09,1.16-3.48-2.31.24-9.72-2.77-12-8.56-4.39-12-5.78-4.17-7.41-4.17-7.41Z"/><path id="svg_111" data-name="svg 111" class="cls-4" d="M232.76,286.83a5,5,0,0,0,3.93,2.31,2.78,2.78,0,0,0,2.78-2.54"/><path id="svg_112" data-name="svg 112" class="cls-4" d="M230.9,291.46s5.79,3.93,10.42,0"/><path id="svg_113" data-name="svg 113" class="cls-11" d="M228.36,276c0,1.28-.52,2.32-1.16,2.32s-1.15-1-1.15-2.32.51-2.31,1.15-2.31S228.36,274.68,228.36,276Z"/><path id="svg_114" data-name="svg 114" class="cls-11" d="M246,276c0,1.28-.52,2.32-1.16,2.32s-1.16-1-1.16-2.32.52-2.31,1.16-2.31S246,274.68,246,276Z"/><circle id="svg_115" data-name="svg 115" class="cls-4" cx="227.2" cy="275.49" r="6.94"/><circle id="svg_116" data-name="svg 116" class="cls-4" cx="245.25" cy="275.49" r="6.94"/><path id="svg_117" data-name="svg 117" class="cls-4" d="M234.38,274.1s2.54-1.85,3.93,0"/><line id="svg_118" data-name="svg 118" class="cls-4" x1="220.26" y1="275.49" x2="216.09" y2="275.49"/><path id="svg_119" data-name="svg 119" class="cls-4" d="M221.88,269a9.13,9.13,0,0,1,8.79-1.39"/><path id="svg_120" data-name="svg 120" class="cls-4" d="M240.11,268.43a9.13,9.13,0,0,1,8.9-.23"/><rect id="svg_105" data-name="svg 105" class="cls-13" x="165.86" y="233.59" width="139.1" height="115.11"/></g><g id="freepik--character-3--inject-23"><path id="svg_122" data-name="svg 122" class="cls-5" d="M591.92,227.65c-.14-1.86-.93-12-2.22-14.6-1.43-2.85-8-5.91-13.67-9.17s-23.86-14.48-26.51-16.11a39.17,39.17,0,0,0-7.14-3.06l-14.27-.79h-.61l-14.28.79a39.78,39.78,0,0,0-7.14,3.06c-2.65,1.63-20.8,12.84-26.51,16.11s-12.24,6.32-13.66,9.17c-1.3,2.6-2.09,12.74-2.23,14.6Z"/><path id="svg_123" data-name="svg 123" class="cls-6" d="M525.45,227.65h6.44c4.46-7.34,12.2-20.17,13.35-22.75,1.63-3.67,1.83-13.46.41-17.34s-3.68-4.28-3.68-4.28L514,182.87S510,188.58,510,191s5.3,19,7.75,23.66c1.45,2.78,5,8.64,7.74,13Z"/><path id="svg_124" data-name="svg 124" class="cls-3" d="M523.75,224.91l1.7,2.74h6.44l2.17-3.59-3.51-6.32,5.71-8-8.56-6.93-5.3,8.36,4.48,7.14Z"/><path id="svg_125" data-name="svg 125" class="cls-6" d="M545.24,204.9c1.63-3.67,1.83-13.46.41-17.34s-3.68-4.28-3.68-4.28L514,182.87S510,188.58,510,191s5.3,19,7.75,23.66c.3.58.71,1.31,1.17,2.13l9.64-9.07,10.07,8.78C541.73,211.26,544.58,206.39,545.24,204.9Z"/><path id="svg_126" data-name="svg 126" class="cls-6" d="M512.61,177s2,13.25,3.26,16.52,10.81,14.27,12.65,14.27,13.25-13.25,14.27-15.29,2.86-14.08,2.86-14.08-10,3.68-15.5,3.68-17.54-5.1-17.54-5.1Z"/><path id="svg_127" data-name="svg 127" class="cls-5" d="M529.86,188.91l-13.12-10.33c-2.42-.9-4.13-1.62-4.13-1.62s1.06,6.89,2.11,11.95Z"/><path id="svg_128" data-name="svg 128" class="cls-4" d="M508.94,157s-1.84-3.87-4.69-.61-.62,6.73,1.22,10.2,3.88,4.69,4.69,4.08S508.94,157,508.94,157Z"/><path id="svg_129" data-name="svg 129" class="cls-6" d="M550.39,157s1.84-3.87,4.69-.61.61,6.73-1.22,10.2-3.88,4.69-4.69,4.08S550.39,157,550.39,157Z"/><path id="svg_130" data-name="svg 130" class="cls-6" d="M516.89,130.66s-8.16,5.92-9.58,11,2,29.36,2.44,32.63,12,13.66,15.71,15.29,8.77.82,10.6,0,10.4-10.2,12-12.85,4.29-25.08,4.29-30.18-3.47-12.44-8-15.5-11-5.5-17.33-4.28a29.56,29.56,0,0,0-10.13,3.89Z"/><path id="svg_131" data-name="svg 131" class="cls-4" d="M524,168.8s-1.22.2.61,1.43,4.08,3.06,6.93,2.24,5.1-1.63,4.7-4.49"/><path id="svg_132" data-name="svg 132" class="cls-4" d="M522.18,176.14a24.38,24.38,0,0,0,15.71-.61"/><ellipse id="svg_133" data-name="svg 133" class="cls-11" cx="520.45" cy="158.81" rx="1.12" ry="1.84"/><path id="svg_134" data-name="svg 134" class="cls-11" d="M539.82,158.81c0,1-.5,1.83-1.12,1.83s-1.12-.82-1.12-1.83.5-1.84,1.12-1.84S539.82,157.79,539.82,158.81Z"/><path id="svg_135" data-name="svg 135" class="cls-4" d="M516.11,153.5a9.14,9.14,0,0,1,8.16-1.63"/><path id="svg_136" data-name="svg 136" class="cls-4" d="M534.84,151.87s5.5-1.63,9.17,2.45"/><path id="svg_137" data-name="svg 137" class="cls-5" d="M507.31,141.68s2.24.4,2.65,5.91.81,12.64-.21,13-1-1-2.85-4.89S506.11,142.29,507.31,141.68Z"/><path id="svg_138" data-name="svg 138" class="cls-5" d="M551.36,142.08s-2,5.1-2.25,7.55-.41,11,1,11.42,1.84-1.63,2.86-9.38S552.17,141.27,551.36,142.08Z"/><path id="svg_139" data-name="svg 139" class="cls-16" d="M503.23,189.6a8.36,8.36,0,0,0-2.36,3.27C499,201,499,208.4,497.15,216.47c3.1,3.11,8.07,1.86,12,4.13-2.64,1.81-2.77-.81,0,0l-7.92,5.4"/><path id="svg_140" data-name="svg 140" class="cls-16" d="M552.38,189.4s5.71,8.15,6.73,13,4.28,14.28,4.28,14.28L549.93,221l11,5.3"/><rect id="svg_121" data-name="svg 121" class="cls-13" x="458.25" y="112.54" width="139.1" height="115.11"/></g><g id="freepik--character-2--inject-23"><path id="svg_142" data-name="svg 142" class="cls-5" d="M376.11,131.71s-3.73-5.28-8.38-.93-14.6,17.7-14,24.84,5.9,16.45,5.9,19.87-2.17,13,1.24,16.76,15.84,3.11,15.84,3.11l6.21-.31s14,3.72,20.8,0,4-21.12,3.11-23.91l-.94-2.79s2.18-14-1.86-22.36-9.62-12.42-15.21-13.35a93.11,93.11,0,0,0-12.71-.93Z"/><path id="svg_143" data-name="svg 143" class="cls-3" d="M433.84,214.61c-3.42-3.73-11.8-5.59-23.29-11.18s-16.14-8.38-16.14-8.38c-4.82-1.78-11.3-.65-13.51-.18-2.21-.47-8.68-1.6-13.51.18,0,0-4.65,2.79-16.14,8.38s-19.87,7.45-23.29,11.18-4,13-4,13H437.87s-.62-9.28-4-13Z"/><path id="svg_144" data-name="svg 144" class="cls-6" d="M372.36,190.39s-2.17-2.79-4.65-1.55-7.46,10.86-7.46,10.86.62,16.77,3.11,18,4.35-9.62,5-10.86,11.48,5.27,11.48,5.27l9.32-4.34s4,11.17,5.9,11.49,2.48-15.84,1.86-19.57-5-9.62-9-9.93a17,17,0,0,0-8.08,1.86l-7.48-1.23Z"/><path id="svg_145" data-name="svg 145" class="cls-6" d="M369.57,180.77s.31,14.9,1.24,18.31,6.83,14,9.63,14.6,10.86-15.53,10.86-15.53l1.55-18.63s-7.14,4.35-23.28,1.25Z"/><path id="svg_146" data-name="svg 146" class="cls-5" d="M381.81,184.27l-3.5-2.44a59.93,59.93,0,0,1-8.74-1.06s.13,6.31.48,11.65l14.06-4.28-2.3-3.87Z"/><path id="svg_147" data-name="svg 147" class="cls-5" d="M375.78,134.19s4-9,13.35-9.31,16.45,6.52,18.63,12.73,10.24,32,14,42.85,3.41,20.8-2.79,31-21.12,13-26.71,7.77-8.07-21.43-4.34-29.5,3.72-12.42,3.41-20.8-13.35-22.36-14.9-26.39a16.68,16.68,0,0,1-.65-8.35Z"/><path id="svg_148" data-name="svg 148" class="cls-4" d="M363.05,161.52s-4.66-2.49-4.35,1.86a12.53,12.53,0,0,0,5.28,8.69l1.24.62-2.17-11.17Z"/><path id="svg_149" data-name="svg 149" class="cls-6" d="M376.11,137s-9,8.38-11.18,13.35a24.87,24.87,0,0,0-1.86,11.18,151.17,151.17,0,0,0,3.1,18.31c.93,3.11,7.55,9.31,14.91,9.94,8.1.69,14.28-10.25,14.28-10.25s2.17-16.76,2.17-18.63-18.65-9-21.42-23.9Z"/><path id="svg_150" data-name="svg 150" class="cls-4" d="M381.68,158.1s1.24,9,1.24,10.87-5.59.93-5.59.93"/><path id="svg_151" data-name="svg 151" class="cls-4" d="M375.78,173.62s5.59,3.11,8.07-.31"/><path id="svg_152" data-name="svg 152" class="cls-11" d="M374.23,159.19a1.43,1.43,0,1,1-1.4-1.71A1.57,1.57,0,0,1,374.23,159.19Z"/><path id="svg_153" data-name="svg 153" class="cls-11" d="M388.51,159.19a1.43,1.43,0,1,1-1.4-1.71A1.57,1.57,0,0,1,388.51,159.19Z"/><path id="svg_154" data-name="svg 154" class="cls-4" d="M369,155.31s.93-3.42,7.76-1.87"/><path id="svg_155" data-name="svg 155" class="cls-4" d="M383.23,154.37s4.35-3.72,9.62.94"/><rect id="svg_141" data-name="svg 141" class="cls-13" x="312.06" y="112.54" width="139.1" height="115.11"/></g><g id="freepik--character-1--inject-23"><path id="svg_157" data-name="svg 157" class="cls-6" d="M294.53,219c-3.52-8.69-7.87-12.62-7.87-12.62l-34-18L237.4,186v-.12l-.42.06-.41-.06V186l-15.32,2.36-33.94,18S183,210.29,179.44,219l-3.52,8.7H298.05Z"/><line id="svg_158" data-name="svg 158" class="cls-4" x1="238.02" y1="199.5" x2="238.02" y2="225.79"/><path id="svg_159" data-name="svg 159" class="cls-4" d="M190.83,209.85s5,12,5.38,17.59"/><path id="svg_160" data-name="svg 160" class="cls-4" d="M282.73,209.64s-6.63,10.56-8.9,17.8"/><ellipse id="svg_161" data-name="svg 161" class="cls-5" cx="237.81" cy="143.51" rx="32.91" ry="30.53"/><polygon id="svg_162" data-name="svg 162" class="cls-14" points="223.11 171.76 223.94 183.97 237.81 198.88 251.68 185.01 251.68 172.59 236.98 175.69 223.11 171.76"/><polygon id="svg_163" data-name="svg 163" class="cls-5" points="230.81 173.94 223.11 171.76 223.94 183.97 224.29 184.35 238.05 180.84 230.81 173.94"/><path id="svg_164" data-name="svg 164" class="cls-14" d="M221,152.49s-3.78-2.7-3.78,2.43A11,11,0,0,0,221,163Z"/><path id="svg_165" data-name="svg 165" class="cls-14" d="M253.46,152.49s3.78-2.7,3.78,2.43a11,11,0,0,1-3.78,8.11Z"/><path id="svg_166" data-name="svg 166" class="cls-14" d="M223.12,171.76s10.81,10,14.32,10.8,14.59-5.67,16.48-10S255,144.19,255,144.19s-1.89-11.35-15.67-11.89l-16.21,39.46Z"/><path id="svg_167" data-name="svg 167" class="cls-4" d="M233.47,164.73s-.54.81,1.08,1.89,5.4,2.16,7.56-1.35"/><path id="svg_168" data-name="svg 168" class="cls-4" d="M231.58,169.59s6.21,2.44,12.15,0"/><path id="svg_169" data-name="svg 169" class="cls-11" d="M231,154.06c0,1.11-.58,2-1.31,2s-1.31-.9-1.31-2,.59-2,1.31-2S231,153,231,154.06Z"/><path id="svg_170" data-name="svg 170" class="cls-11" d="M246.27,154.06c0,1.11-.58,2-1.31,2s-1.31-.9-1.31-2,.59-2,1.31-2S246.27,153,246.27,154.06Z"/><path id="svg_171" data-name="svg 171" class="cls-4" d="M234.11,150.68H223.47s-2.15.47-1.08,5.14c.72,3.15,8.42,2.43,10,2.43,3.11,0,3.62-4,3.12-6.39A1.49,1.49,0,0,0,234.11,150.68Z"/><path id="svg_172" data-name="svg 172" class="cls-4" d="M240.68,150.68h10.61s2.16.47,1.08,5.14c-.72,3.15-8.41,2.43-10,2.43-3.11,0-3.63-4-3.13-6.39a1.5,1.5,0,0,1,1.44-1.18Z"/><line id="svg_173" data-name="svg 173" class="cls-4" x1="234.58" y1="150.85" x2="239.95" y2="150.85"/><path id="svg_174" data-name="svg 174" class="cls-4" d="M235.77,152.88s1.19-2,3.34,0"/><line id="svg_175" data-name="svg 175" class="cls-4" x1="223.47" y1="150.68" x2="221.08" y2="152.05"/><line id="svg_176" data-name="svg 176" class="cls-4" x1="251.77" y1="150.97" x2="254.28" y2="152.4"/><path id="svg_177" data-name="svg 177" class="cls-15" d="M241.33,149.61s3.11-2.27,9.11,0"/><path id="svg_178" data-name="svg 178" class="cls-15" d="M234.29,149.61s-5-2.27-9.73,0"/><polygon id="svg_179" data-name="svg 179" class="cls-6" points="223.74 180.66 237.81 198.88 230.77 207.16 219.39 189.56 223.74 180.66"/><polygon id="svg_180" data-name="svg 180" class="cls-6" points="238.02 199.5 246.5 207.99 257.06 189.36 252.09 182.32 238.02 199.5"/><rect id="svg_156" data-name="svg 156" class="cls-13" x="165.86" y="112.54" width="139.1" height="115.11"/></g><image width="225" height="225" transform="translate(318.06 111.78) scale(0.53 0.49)" xlink:href="../../../download-removebg-preview.png"/><image width="494" height="505" transform="translate(475.93 125.14) scale(0.21 0.18)" xlink:href="../../../mapa-nordeste-11550711141ewpq07djln-removebg-preview.png"/><image width="301" height="281" transform="translate(176.48 237.67) scale(0.36 0.38)" xlink:href="../../../mapa%20centro-oeste.png"/><image width="333" height="310" transform="translate(317.44 236.85) scale(0.38 0.35)" xlink:href="../../../sul%20svg.png"/><image width="225" height="225" transform="translate(463.68 234.75) scale(0.53 0.49)" xlink:href="../../../images.png"/><image width="1024" height="902" transform="translate(181.5 117.02) scale(0.12 0.12)" xlink:href="../../../1024px-Brazil_Labelled_Map.svg.png"/></g></g></svg>