<?xml version="1.0" encoding="utf-8"?>
<!-- Generator: Adobe Illustrator 24.3.0, SVG Export Plug-In . SVG Version: 6.00 Build 0)  -->
<svg version="1.1" id="Camada_1" xmlns="http://www.w3.org/2000/svg" xmlns:xlink="http://www.w3.org/1999/xlink" x="0px" y="0px"
	 viewBox="0 0 700 500" style="enable-background:new 0 0 700 500;" xml:space="preserve">
<style type="text/css">
	.st0{fill:#92E3A9;}
	.st1{opacity:0.7;fill:#FFFFFF;enable-background:new    ;}
	.st2{fill:#92E3A9;stroke:#263238;stroke-linecap:round;stroke-linejoin:round;}
	.st3{fill:none;stroke:#263238;stroke-linecap:round;stroke-linejoin:round;}
	.st4{fill:#263238;stroke:#263238;stroke-linecap:round;stroke-linejoin:round;}
	.st5{fill:#FFFFFF;stroke:#263238;stroke-linecap:round;stroke-linejoin:round;}
	.st6{opacity:0.2;}
	.st7{fill:none;stroke:#000000;stroke-linecap:round;stroke-linejoin:round;}
	.st8{fill:none;stroke:#000000;stroke-width:2;stroke-linecap:round;stroke-linejoin:round;}
	.st9{fill:#636363;stroke:#263238;stroke-linecap:round;stroke-linejoin:round;}
	.st10{fill:#263238;}
	.st11{fill:#FFFFFF;}
	.st12{fill:none;stroke:#263238;stroke-width:2;stroke-linecap:round;stroke-miterlimit:10;}
	.st13{fill:#B8B8B8;stroke:#263238;stroke-linecap:round;stroke-linejoin:round;}
	.st14{fill:none;stroke:#263238;stroke-width:2;stroke-linecap:round;stroke-linejoin:round;}
	.st15{fill:none;stroke:#6B6B6B;stroke-linecap:round;stroke-linejoin:round;}
</style>
<g id="freepik--background-simple--inject-23">
	<path class="st0" d="M84.4,452.2h565.8c1.8-3.3,3.4-6.7,4.6-10.3c5.2-14.6,9.2-35,10.3-40.6c9.5-50.4,6.8-109.7-11.1-157.8
		c-9.8-26.3-29.3-47.2-49.1-65.4c-21-19.4-41.7-38.7-62.7-58C499.7,81,446.6,38,387.9,35.2c-62-3-108.6,30-146.6,78.1
		c-37.6,47.6-92.8,84.6-144,113.4c-45.3,25.5-75.8,75.6-69.4,131C32.2,395.6,55.5,429.7,84.4,452.2z"/>
	<path class="st1" d="M84.4,452.2h565.8c1.8-3.3,3.4-6.7,4.6-10.3c5.2-14.6,9.2-35,10.3-40.6c9.5-50.4,6.8-109.7-11.1-157.8
		c-9.8-26.3-29.3-47.2-49.1-65.4c-21-19.4-41.7-38.7-62.7-58C499.7,81,446.6,38,387.9,35.2c-62-3-108.6,30-146.6,78.1
		c-37.6,47.6-92.8,84.6-144,113.4c-45.3,25.5-75.8,75.6-69.4,131C32.2,395.6,55.5,429.7,84.4,452.2z"/>
</g>
<g id="freepik--Plants--inject-23">
	<path class="st2" d="M47.2,231.3c0,0-4.2,11.5-13.1,13.1s-24.6-15.7-14.7-24.6S43,225,47.2,231.3z"/>
	<path class="st2" d="M60.8,174.7c0,0-13.1,32-7.9,47.7s37.7,27.2,47.2,6.8S88.6,180,80.7,173.7S63.4,169.5,60.8,174.7z"/>
	<path class="st2" d="M137.3,188.3c0,0-22.5,20.4-25.2,40.9s12.6,27.8,28.3,25.1s23.6-42.4,18.9-60.8S137.3,188.3,137.3,188.3z"/>
	<path class="st2" d="M141.5,301.5c0,0-25.2,1-26.2,13.1s11,14.7,23.1,4.2S152,302,141.5,301.5z"/>
	<path class="st2" d="M79.1,326.7c0,0-2.6,12.6-12,17.3s-26.2-5.2-17.3-20.4S74.4,320.4,79.1,326.7z"/>
	<path class="st2" d="M57.1,287.4c0,0-4.7-10.5-23.1-3.7s-25.7,17.3-14.1,21S57.1,287.4,57.1,287.4z"/>
	<path class="st2" d="M109.5,161.6c0,0,3.2,7.3,9.4,5.8s7.9-11,17.8-8.4s18.4,14.1,18.4,8.9S142.6,149,128.4,149
		S110.1,154.8,109.5,161.6z"/>
	<line class="st3" x1="73.5" y1="192" x2="72" y2="184.8"/>
	<path class="st3" d="M96.9,371.5c0,0,2.3-43.9,0-71.2s-13.3-59.5-13.3-59.5l-9.4-45.4"/>
	<line class="st3" x1="142" y1="206.4" x2="144.1" y2="201.7"/>
	<path class="st3" d="M102.4,371.5c0,0,0.8-36,3.9-59.5s15.7-60.3,15.7-60.3l18.8-42.5"/>
	<line class="st3" x1="133.6" y1="311.3" x2="137.1" y2="310.1"/>
	<path class="st3" d="M107.1,372.3c3.1-53.2,8.6-54.8,8.6-54.8l15-5.2"/>
	<path class="st3" d="M60.4,331c-1.1,0.6-2.2,1.2-3.3,1.9"/>
	<path class="st3" d="M89.1,370.8c0,0,1.6-28.2-1.6-38.4s-8.4-5.7-8.4-5.7s-6.4-1.1-15.5,2.8"/>
	<path class="st3" d="M92.7,321.6C96.8,344.6,93,370,93,370"/>
	<path class="st3" d="M29.7,294.4c-1.2,0.5-2.3,1.1-3.4,1.8"/>
	<path class="st3" d="M91.4,315.8c-0.6-2.6-1.4-5.2-2.4-7.7c-9.4-25.1-32-20.7-32-20.7c-7.6,0.9-15.2,2.5-22.5,5"/>
	<path class="st2" d="M151.3,263.1c0,0,4.7-10.5,23.1-3.7c18.3,6.8,25.7,17.3,14.1,21S151.3,263.1,151.3,263.1z"/>
	<path class="st3" d="M131.2,267.7c-4.5,3.1-8.9,8.1-11.9,16.1c-9.4,25.1-8.3,86.9-8.3,86.9"/>
	<path class="st3" d="M135.7,265.2c4.9-2.1,10.3-2.9,15.6-2.1c0,0,8-3.9,22.6,6.7"/>
	<path class="st3" d="M71.9,247.3c5.9,7.1,10.4,15.2,13.3,24c12.5,36,17.2,82.2,14.9,99.5"/>
	<line class="st3" x1="28.4" y1="229.8" x2="25.3" y2="229.6"/>
	<path class="st3" d="M69.2,244.3c-11.1-11.3-22-13-22-13L31.3,230"/>
	<path class="st3" d="M103.7,281c-0.8,45.5-1.3,90.5-1.3,90.5"/>
	<path class="st3" d="M133.5,154c2.1,0.6,4.2,1.4,6.1,2.5"/>
	<path class="st3" d="M103.8,275.4c0.5-30.1,1.1-59.5,1.7-75.3c1.6-40.7,4-38.4,4-38.4s7.4-8.1,18.2-8.3"/>
	<path class="st4" d="M125,451.4H79.1c-4.9,0-9-3.7-9.5-8.6L62.5,370h79.1l-7.1,72.8C134,447.7,129.9,451.4,125,451.4z"/>
	<polygon class="st5" points="64.8,394.2 65.7,402.9 138.4,402.9 139.2,394.2 	"/>
	<polygon class="st5" points="136.5,421.6 137,417 67,417 67.5,421.6 	"/>
	<path class="st5" d="M124.3,384.1c0,3.5,2.8,6.3,6.3,6.3c3.5,0,6.3-2.8,6.3-6.3c0-3.5-2.8-6.3-6.3-6.3c0,0,0,0,0,0
		C127.1,377.8,124.3,380.6,124.3,384.1z"/>
	<path class="st5" d="M74.2,390.3c3.5,0,6.3-2.7,6.3-6.2c0-3.5-2.7-6.3-6.2-6.3S68,380.5,68,384c0,0,0,0,0,0.1
		C68,387.5,70.8,390.3,74.2,390.3z"/>
	<circle class="st5" cx="93" cy="384.1" r="6.3"/>
	<path class="st5" d="M105.5,384.1c0,3.5,2.8,6.3,6.3,6.3c3.5,0,6.3-2.8,6.3-6.3c0-3.5-2.8-6.3-6.3-6.3c0,0,0,0,0,0
		C108.3,377.8,105.5,380.6,105.5,384.1z"/>
</g>
<g id="freepik--Graphics--inject-23">
	<g class="st6">
		<circle class="st7" cx="143.9" cy="69.9" r="21.7"/>
		<ellipse class="st7" cx="143.9" cy="69.9" rx="9.6" ry="21.7"/>
		<path class="st7" d="M128.9,54.3c8.4,8,21.6,8,30-0.1"/>
		<path class="st7" d="M128.9,85.6c8.4-8,21.6-8,30,0.1"/>
		<line class="st7" x1="122.2" y1="69.9" x2="165.6" y2="69.9"/>
	</g>
	<g class="st6">
		<path class="st7" d="M336.5,54.6h30.4c2.2,0,4,1.8,4,4V79c0,2.2-1.8,4-4,4h-30.4c-2.2,0-4-1.8-4-4V58.6
			C332.5,56.4,334.3,54.6,336.5,54.6z"/>
		<polyline class="st7" points="371,74.1 384.2,81.7 384.2,55.9 371,63.5 		"/>
	</g>
	<g class="st6">
		<path class="st7" d="M462.9,74.3L462.9,74.3c-3.3,0-6-2.7-6-6.1V56.8c0-3.3,2.7-6,6-6l0,0c3.3,0,6.1,2.7,6.1,6c0,0,0,0,0,0v11.4
			C469,71.6,466.3,74.3,462.9,74.3C462.9,74.3,462.9,74.3,462.9,74.3z"/>
		<path class="st8" d="M453.3,68.5c0,5.3,4.3,9.6,9.6,9.6c5.3,0,9.6-4.3,9.6-9.6"/>
		<line class="st8" x1="462.9" y1="78.1" x2="462.9" y2="86.3"/>
		<line class="st8" x1="456" y1="86.8" x2="470" y2="86.8"/>
	</g>
	<g class="st6">
		<path class="st7" d="M577.8,60.9c0-4.2-3.4-7.7-7.7-7.7l0,0h-34.6c-4.2,0-7.7,3.4-7.7,7.7v13.9c0,4.2,3.4,7.7,7.7,7.7h34.6
			c0.5,0,1,0,1.5-0.1l6.2,9.8V75l0,0c0-0.1,0-0.2,0-0.3V60.9z"/>
		<line class="st7" x1="538.5" y1="62.8" x2="568.8" y2="62.8"/>
		<line class="st7" x1="538.5" y1="68.2" x2="568.8" y2="68.2"/>
		<line class="st7" x1="538.5" y1="73.6" x2="568.8" y2="73.6"/>
	</g>
	<g class="st6">
		<path class="st7" d="M221.1,60.9c0-4.2,3.5-7.7,7.7-7.7h34.6c4.2,0,7.7,3.4,7.7,7.7l0,0v13.9c0,4.2-3.4,7.7-7.7,7.7l0,0h-34.6
			c-0.5,0-1,0-1.5-0.1l-6.2,9.8V75l0,0c0-0.1,0-0.2,0-0.3L221.1,60.9z"/>
		<line class="st7" x1="260.4" y1="62.8" x2="230.1" y2="62.8"/>
		<line class="st7" x1="260.4" y1="68.2" x2="230.1" y2="68.2"/>
		<line class="st7" x1="260.4" y1="73.6" x2="230.1" y2="73.6"/>
	</g>
</g>
<g id="freepik--Device--inject-23">
	<line class="st3" x1="22" y1="452.2" x2="687" y2="452.2"/>
	<path class="st9" d="M165.9,117H626c5.8,0,10.5,4.7,10.5,10.5c0,0,0,0,0,0v301.8l0,0h-481l0,0V127.5
		C155.5,121.7,160.1,117,165.9,117z"/>
	<circle class="st10" cx="395.9" cy="126.4" r="4.2"/>
	<path class="st10" d="M160,204.9L160,204.9c-0.7,0-1.2-0.5-1.2-1.2v-35c0-0.7,0.5-1.2,1.2-1.2l0,0c0.7,0,1.2,0.5,1.2,1.2v35
		C161.2,204.3,160.7,204.9,160,204.9L160,204.9z"/>
	<rect x="175" y="141.4" class="st4" width="442" height="249.8"/>
	<rect x="231.8" y="424.2" class="st4" width="330.6" height="6.3"/>
	<path class="st4" d="M116.6,440.1c0,0,5.4,6.6,21.7,12.1h517.6c0,0,12.1-3,17.5-11.5L116.6,440.1z"/>
	<path class="st9" d="M117.3,428.3h555.3c1,0,1.9,0.8,1.9,1.9v8.9c0,1-0.8,1.9-1.9,1.9H117.3c-1,0-1.9-0.8-1.9-1.9v-8.9
		C115.4,429.1,116.3,428.3,117.3,428.3z"/>
</g>
<g id="freepik--character-6--inject-23">
	<rect x="472.1" y="268.6" class="st11" width="139.1" height="115.1"/>
	<polygon class="st4" points="527.8,345.5 516.1,354.9 515.9,383.8 567.9,383.8 565.2,352.2 553.1,343.8 	"/>
	<path class="st5" d="M527,333.8c0,0-0.8,13.5,0,15.8s3.9,10,14.5,11c12.5,1.3,15.5-13,15.5-13l-0.8-13.7c0,0-8,1.8-14.7,1
		s-14.7-1.8-14.7-1.8"/>
	<path class="st4" d="M543.4,338.6l-11.6-5l-5.1-0.6l0.2,0.8c0,0-0.4,7-0.3,11.8l16.8-2.8V338.6z"/>
	<path class="st5" d="M515.7,309.7c0,0-1.4,4.5-0.6,8s7.8,6.3,7.8,6.3s0.6,7.6,2.5,9.6s10,8.6,13.5,9.6s6.3,1,8.6-0.4
		s10.6-7.2,11.9-10.2c1-3,1.9-6,2.7-9c0,0,4.1-0.6,5.7-3.9s1.8-8.2,1.8-9.6s-4.1-4.5-6.8-6.5s-18.8-11.9-21.7-12.1s-6.5,0.8-7.8,2
		S515.7,309.7,515.7,309.7z"/>
	<path class="st3" d="M538.1,324.4c1.3,1.1,3,1.7,4.7,1.6c2.7-0.2,3.5-1.6,3.5-1.6"/>
	<path class="st3" d="M536.4,328.9c0,0,4.9,3.3,11.9,0"/>
	<path class="st3" d="M537.2,315c0,0-3.9-4.9-9-1.6"/>
	<path class="st3" d="M548.1,315.2c1.6-2.5,4.8-3.5,7.6-2.5"/>
	<path class="st10" d="M535,313.8c0-0.8-0.6-1.4-1.4-1.4c-0.8,0-1.4,0.6-1.4,1.4c0,0.8,0.6,1.4,1.4,1.4l0,0
		C534.4,315.2,535,314.5,535,313.8z"/>
	<path class="st10" d="M553,313.8c0-0.8-0.6-1.4-1.4-1.4c-0.8,0-1.4,0.6-1.4,1.4c0,0.8,0.6,1.4,1.4,1.4l0,0
		C552.4,315.2,553,314.5,553,313.8z"/>
	<path class="st12" d="M539,309.9c-3.6-1.9-8-1.7-11.5,0.6"/>
	<path class="st12" d="M557.8,309.9c-3.6-1.9-8-1.7-11.5,0.6"/>
	<path class="st4" d="M538.4,294.9c0,0-2.9,6.5-5.5,9.2s-7.8,4.3-7.8,4.3c-0.7,1.3-1.4,2.5-2.2,3.7c-0.6,0.6-0.4,7.1-0.4,7.8
		s-2.5-1.8-2.5-3.3c0-1.2-0.2-2.3-0.4-3.5c-1.2-0.5-2.3-1.1-3.3-1.8c-0.8-0.8-1.8-0.6-1.8-2.7v-3.5c0,0-4.5-0.6-3.7-4.9
		s9.6-19,17.6-22.1s13.1,0.2,13.1,0.2c4-2.2,8.6-3.1,13.1-2.7c7.6,0.8,17.8,15.1,19.8,21.9s0,12.1-1,12.3c-1.3,0.1-2.6,0.2-3.9,0.2
		c0,0-0.2,0.6-1.8,1.8c-1.4,0.9-2.9,1.5-4.5,1.8c0.2,1.5,0.2,3-0.2,4.5c-0.3,0.9-0.7,1.7-1.2,2.5l-0.8-10.8c-3.6-1.2-7-3-10-5.3
		c-2.5-2-4.6-4.3-6.3-7c0,0,1.8,4.1,1,4.5S539.2,299,538.4,294.9z"/>
	<path class="st2" d="M526.6,347.9l-2.5,35.8h-45c0,0,7.4-17.4,10.4-19.2s28-11.5,28-11.5s1.6-2.5,3.7-4.9S526.2,346.3,526.6,347.9z
		"/>
	<path class="st3" d="M517.6,353c-0.8,4.4-1.9,8.7-3.3,12.9c-1.6,4.3-3.7,6.8-3.5,7.6s2.9,1,4.5-1.2s5.7-8.2,7-8.2s2.2,8.6,2.2,8.6"
		/>
	<path class="st2" d="M556.8,347.9l2.5,35.8h45c0,0-7.4-17.4-10.4-19.2s-28-11.5-28-11.5s-1.6-2.5-3.7-4.9S557.2,346.3,556.8,347.9z
		"/>
	<path class="st3" d="M565.8,353c0,0,1.6,8.6,3.3,12.9s3.7,6.8,3.5,7.6s-2.9,1-4.5-1.2s-5.7-8.2-7-8.2s-2.2,8.6-2.2,8.6"/>
</g>
<g id="freepik--character-5--inject-23">
	<rect x="326" y="268.6" class="st11" width="139.1" height="115.1"/>
	<path class="st4" d="M455,377.9c0,0-0.9-6.2-1.2-7.1s-4.4-2.8-11-6.8s-29.6-17.2-29.6-17.2h-37.5c0,0-23,13.3-29.6,17.3
		s-10.7,5.9-11,6.8s-1.3,7.1-1.3,7.1l-0.3,5.9h121.7L455,377.9z"/>
	<path class="st5" d="M377.9,337.2c0,0-5.2,1.5-5.5,3.7s-3.7,9.6-3.7,9.6s3.7,6.5,6.5,12s2.8,7.1,3.7,7.1s10.5-12.3,11.4-13.2
		s6.8,0.6,6.8,0.6s9.5,14.8,11.1,14.8s8.9-18.8,8.9-23.4s-6.2-10.5-6.2-10.5L377.9,337.2z"/>
	<path class="st13" d="M377,333.2c0,0-0.9,6.8,0.3,10.2s12.3,21,16.3,21s14.8-17,16.6-18.8s2.2-11.1,2.2-11.1s-12,5.9-21.9,2.8
		S377,333.2,377,333.2z"/>
	<path class="st4" d="M387,336.1c-7.1-2.2-9.9-2.9-9.9-2.9s-0.9,6.8,0.3,10.2c0.6,1.4,1.4,2.8,2.2,4.2l14.8-5.5L387,336.1z"/>
	<path class="st13" d="M374.5,304.8c0,0-3.7-8.9-6.2-1.9s3.7,12,5.2,13S374.5,304.8,374.5,304.8z"/>
	<path class="st13" d="M415.5,304.8c0,0,3.7-8.9,6.2-1.9s-3.7,12-5.2,13S415.5,304.8,415.5,304.8z"/>
	<path class="st13" d="M416.5,307.6c0,0,1.2-12.6-0.3-22.5s-14.8-15.1-24.7-13.2s-16.3,7.1-17.6,16s-0.3,36.4,0.3,40.7
		s10.8,13.3,22.5,13.3s18.2-11.4,19.1-14.8S416.5,307.6,416.5,307.6z"/>
	<path class="st5" d="M393.7,317.6c0,0-12.7,3.7-15.5,4.8s-4.4,3.2-4.4,7.8s5.5,9.5,8.3,11.3s11.3,5.5,18,3.7s14.1-6.7,16.6-11.1
		s-0.7-7.9-1.4-8.8s-11.5-7.8-15-7.8H393.7z"/>
	<path class="st13" d="M390.7,313.6c0,0-0.9,2.5,0,3.2c1.9,1.1,4,1.7,6.2,1.6c3,0,3.5-1.4,4.1-2.3s-0.5-2.5-0.5-2.5"/>
	<path class="st13" d="M386.8,324c2.7,1.3,5.6,2.2,8.5,2.5c4.6,0.5,9.9-2.5,9.9-2.5s0.5,1.4-2.1,3.9s-3.7,2.6-6.9,2.8
		C391.1,331,387.5,326.6,386.8,324z"/>
	<path class="st13" d="M386.8,324c0,0,4.6,0,7.6-0.2s10.8,0.2,10.8,0.2S397.4,329.8,386.8,324z"/>
	<path class="st10" d="M387.5,304.3c-0.2,0.8-0.9,1.2-1.7,1.1c-0.8-0.2-1.2-0.9-1.1-1.7c0.1-0.6,0.7-1.1,1.4-1.1
		C386.9,302.7,387.5,303.5,387.5,304.3z"/>
	<ellipse class="st10" cx="405.2" cy="304.3" rx="1.4" ry="1.7"/>
	<path class="st3" d="M390.9,306.5c-2.1,1.9-4.8,3.1-7.6,3.5"/>
	<path class="st3" d="M400.8,307.7c2.1,2.1,4.9,3.2,7.8,3.2"/>
	<path class="st14" d="M390.7,296.6c-3.9-1.7-8.5-1.1-11.8,1.6"/>
	<path class="st14" d="M400.4,296.8c3.5-1.6,7.6-0.9,10.4,1.6"/>
</g>
<g id="freepik--character-4--inject-23">
	<rect x="179.8" y="268.6" class="st11" width="139.1" height="115.1"/>
	<path class="st4" d="M244.3,277.6c0,0-5.3-3.9-12,0.5s-6.9,6.9-7.4,13.2s-0.5,7.6-4.2,11.6s-9,8.1-8.1,16.9s13,11.6,16.4,11.6
		s15.5,0.7,15.5,0.7s15.7,3,25,0.2c5.4-1.6,10.3-4.7,13.9-9c0,0,10-0.7,9.3-13.4s-9-12.7-13-16.7s-2.7-15.5-11.3-20.2
		S244.6,267.7,244.3,277.6z"/>
	<path class="st5" d="M303.8,363.8c-4.2-5.5-9.7-5.8-19.7-8.3s-19.4-6-20.4-9s-3-18.3-3-18.3l-11.1-0.2l0,0H249l0,0l-11.1,0.2
		c0,0-2.1,15.3-3,18.3s-10.4,6.5-20.4,9s-15.5,2.8-19.7,8.3s-6.5,19.9-6.5,19.9h121.9C310.3,383.7,308,369.4,303.8,363.8z"/>
	<path class="st4" d="M250.4,338.9l-12.5-10.8c0,0-1.3,9.8-2.3,15.2L250.4,338.9z"/>
	<path class="st2" d="M303.8,363.8c-4.2-5.5-9.7-5.8-19.7-8.3c-0.6-0.1-1.1-0.3-1.7-0.5c-8.8,8.1-20.3,12.8-32.3,13
		c-19.4,0.6-30.6-9.5-33.9-13l-1.7,0.5c-9.9,2.5-15.5,2.8-19.7,8.3s-6.5,19.9-6.5,19.9h122C310.3,383.7,308,369.4,303.8,363.8z"/>
	<path class="st5" d="M245.5,290.8c-1.7,2.8-3.9,5.3-6.5,7.4c-4.2,3.2-6.2,2.5-8.1,4.9s-0.2,14.6,0.2,19.2s9.5,13.4,12,15.5
		s5.8,4.6,8.1,3.5s6.2-3,14.1-13c2.1-2.7,1.6-5.8,2.1-7.4c0.3-0.8,0.4-1.7,0.5-2.5c0,0-2.1,1.2-3.5-2.3s0.2-9.7-2.8-12
		s-8.6-4.4-12-5.8S245.5,290.8,245.5,290.8z"/>
	<path class="st3" d="M246.6,321.8c0.9,1.4,2.3,2.2,3.9,2.3c1.4,0,2.7-1.1,2.8-2.5"/>
	<path class="st3" d="M244.8,326.5c0,0,5.8,3.9,10.4,0"/>
	<path class="st10" d="M242.2,311c0,1.3-0.5,2.3-1.2,2.3s-1.1-1-1.1-2.3s0.5-2.3,1.1-2.3S242.2,309.7,242.2,311z"/>
	<path class="st10" d="M259.8,311c0,1.3-0.5,2.3-1.2,2.3s-1.2-1-1.2-2.3s0.5-2.3,1.2-2.3S259.8,309.7,259.8,311z"/>
	<circle class="st3" cx="241.1" cy="310.5" r="6.9"/>
	<circle class="st3" cx="259.1" cy="310.5" r="6.9"/>
	<path class="st3" d="M248.3,309.1c0,0,2.5-1.9,3.9,0"/>
	<line class="st3" x1="234.1" y1="310.5" x2="230" y2="310.5"/>
	<path class="st3" d="M235.8,304c2.5-2,5.8-2.5,8.8-1.4"/>
	<path class="st3" d="M254,303.4c2.7-1.6,6.1-1.7,8.9-0.2"/>
</g>
<g id="freepik--character-3--inject-23">
	<rect x="472.1" y="147.5" class="st11" width="139.1" height="115.1"/>
	<path class="st4" d="M605.8,262.6c-0.1-1.9-0.9-12-2.2-14.6c-1.4-2.9-8-5.9-13.7-9.2s-23.9-14.5-26.5-16.1
		c-2.3-1.3-4.7-2.3-7.1-3.1l-14.3-0.8l0,0h-0.3h-0.3l0,0l-14.3,0.8c-2.5,0.8-4.9,1.8-7.1,3.1c-2.7,1.6-20.8,12.8-26.5,16.1
		s-12.2,6.3-13.7,9.2c-1.3,2.6-2.1,12.7-2.2,14.6H605.8z"/>
	<path class="st5" d="M539.3,262.6h6.4c4.5-7.3,12.2-20.2,13.3-22.8c1.6-3.7,1.8-13.5,0.4-17.3s-3.7-4.3-3.7-4.3l-27.9-0.4
		c0,0-4.1,5.7-4.1,8.2s5.3,19,7.8,23.7C533,252.5,536.7,258.3,539.3,262.6z"/>
	<path class="st2" d="M537.6,259.9l1.7,2.7h6.4l2.2-3.6l-3.5-6.3l5.7-8l-8.6-6.9l-5.3,8.4l4.5,7.1L537.6,259.9z"/>
	<path class="st5" d="M559.1,239.9c1.6-3.7,1.8-13.5,0.4-17.3s-3.7-4.3-3.7-4.3l-27.9-0.4c0,0-4.1,5.7-4.1,8.2s5.3,19,7.8,23.7
		c0.3,0.6,0.7,1.3,1.2,2.1l9.6-9.1l10.1,8.8C555.6,246.3,558.5,241.4,559.1,239.9z"/>
	<path class="st5" d="M526.5,212c0,0,2,13.2,3.3,16.5s10.8,14.3,12.7,14.3s13.2-13.2,14.3-15.3s2.9-14.1,2.9-14.1s-10,3.7-15.5,3.7
		S526.5,212,526.5,212z"/>
	<path class="st4" d="M543.8,223.9l-13.1-10.3c-2.4-0.9-4.1-1.6-4.1-1.6s1.1,6.9,2.1,11.9H543.8z"/>
	<path class="st3" d="M522.8,192c0,0-1.8-3.9-4.7-0.6s-0.6,6.7,1.2,10.2s3.9,4.7,4.7,4.1S522.8,192,522.8,192z"/>
	<path class="st5" d="M564.3,192c0,0,1.8-3.9,4.7-0.6s0.6,6.7-1.2,10.2s-3.9,4.7-4.7,4.1S564.3,192,564.3,192z"/>
	<path class="st5" d="M530.8,165.7c0,0-8.2,5.9-9.6,11s2,29.4,2.4,32.6s12,13.7,15.7,15.3s8.8,0.8,10.6,0s10.4-10.2,12-12.9
		s4.3-25.1,4.3-30.2s-3.5-12.4-8-15.5s-11-5.5-17.3-4.3C537.3,162.4,533.9,163.7,530.8,165.7z"/>
	<path class="st3" d="M537.9,203.8c0,0-1.2,0.2,0.6,1.4s4.1,3.1,6.9,2.2s5.1-1.6,4.7-4.5"/>
	<path class="st3" d="M536.1,211.1c5.2,1.5,10.7,1.3,15.7-0.6"/>
	<ellipse class="st10" cx="534.3" cy="193.8" rx="1.1" ry="1.8"/>
	<path class="st10" d="M553.7,193.8c0,1-0.5,1.8-1.1,1.8s-1.1-0.8-1.1-1.8s0.5-1.8,1.1-1.8S553.7,192.8,553.7,193.8z"/>
	<path class="st3" d="M530,188.5c2.3-1.8,5.3-2.4,8.2-1.6"/>
	<path class="st3" d="M548.7,186.9c0,0,5.5-1.6,9.2,2.4"/>
	<path class="st4" d="M521.2,176.7c0,0,2.2,0.4,2.7,5.9s0.8,12.6-0.2,13s-1-1-2.8-4.9S520,177.3,521.2,176.7z"/>
	<path class="st4" d="M565.2,177.1c0,0-2,5.1-2.2,7.6s-0.4,11,1,11.4s1.8-1.6,2.9-9.4S566.1,176.3,565.2,177.1z"/>
	<path class="st15" d="M517.1,224.6c-1,0.9-1.9,2-2.4,3.3c-1.9,8.1-1.9,15.5-3.7,23.6c3.1,3.1,8.1,1.9,12,4.1c-2.6,1.8-2.8-0.8,0,0
		l-7.9,5.4"/>
	<path class="st15" d="M566.3,224.4c0,0,5.7,8.1,6.7,13s4.3,14.3,4.3,14.3l-13.5,4.3l11,5.3"/>
</g>
<g id="freepik--character-2--inject-23">
	<rect x="326" y="147.5" class="st11" width="139.1" height="115.1"/>
	<path class="st4" d="M390,166.7c0,0-3.7-5.3-8.4-0.9s-14.6,17.7-14,24.8s5.9,16.4,5.9,19.9s-2.2,13,1.2,16.8s15.8,3.1,15.8,3.1
		l6.2-0.3c0,0,14,3.7,20.8,0s4-21.1,3.1-23.9l-0.9-2.8c0,0,2.2-14-1.9-22.4s-9.6-12.4-15.2-13.4C398.5,167,394.3,166.7,390,166.7z"
		/>
	<path class="st2" d="M447.7,249.6c-3.4-3.7-11.8-5.6-23.3-11.2s-16.1-8.4-16.1-8.4c-4.8-1.8-11.3-0.6-13.5-0.2
		c-2.2-0.5-8.7-1.6-13.5,0.2c0,0-4.6,2.8-16.1,8.4s-19.9,7.4-23.3,11.2s-4,13-4,13h113.9C451.8,262.6,451.1,253.3,447.7,249.6z"/>
	<path class="st5" d="M386.2,225.4c0,0-2.2-2.8-4.6-1.6s-7.5,10.9-7.5,10.9s0.6,16.8,3.1,18s4.4-9.6,5-10.9s11.5,5.3,11.5,5.3
		l9.3-4.3c0,0,4,11.2,5.9,11.5s2.5-15.8,1.9-19.6s-5-9.6-9-9.9c-2.8-0.1-5.6,0.6-8.1,1.9L386.2,225.4z"/>
	<path class="st5" d="M383.5,215.8c0,0,0.3,14.9,1.2,18.3s6.8,14,9.6,14.6s10.9-15.5,10.9-15.5l1.5-18.6
		C406.7,214.5,399.6,218.9,383.5,215.8z"/>
	<path class="st4" d="M395.7,219.3l-3.5-2.4c-2.9-0.1-5.9-0.5-8.7-1.1c0,0,0.1,6.3,0.5,11.6l14.1-4.3L395.7,219.3z"/>
	<path class="st4" d="M389.7,169.2c0,0,4-9,13.4-9.3s16.5,6.5,18.6,12.7s10.2,32,14,42.8s3.4,20.8-2.8,31
		c-6.2,10.2-21.1,13-26.7,7.8s-8.1-21.4-4.3-29.5s3.7-12.4,3.4-20.8s-13.4-22.4-14.9-26.4C389.4,174.9,389.2,172,389.7,169.2z"/>
	<path class="st3" d="M376.9,196.5c0,0-4.7-2.5-4.4,1.9s4,8.1,5.3,8.7l1.2,0.6L376.9,196.5z"/>
	<path class="st5" d="M390,172c0,0-9,8.4-11.2,13.4c-1.5,3.5-2.1,7.4-1.9,11.2c0.7,6.2,1.7,12.3,3.1,18.3c0.9,3.1,7.5,9.3,14.9,9.9
		c8.1,0.7,14.3-10.2,14.3-10.2s2.2-16.8,2.2-18.6S392.8,186.9,390,172z"/>
	<path class="st3" d="M395.6,193.1c0,0,1.2,9,1.2,10.9s-5.6,0.9-5.6,0.9"/>
	<path class="st3" d="M389.7,208.6c0,0,5.6,3.1,8.1-0.3"/>
	<path class="st10" d="M388.1,194.2c-0.2,0.8-0.9,1.3-1.7,1.1c-0.8-0.2-1.3-0.9-1.1-1.7c0.1-0.7,0.7-1.2,1.4-1.1
		C387.6,192.6,388.2,193.3,388.1,194.2z"/>
	<path class="st10" d="M402.4,194.2c-0.2,0.8-0.9,1.3-1.7,1.1c-0.8-0.2-1.3-0.9-1.1-1.7c0.1-0.7,0.7-1.2,1.4-1.1
		C401.9,192.6,402.5,193.3,402.4,194.2z"/>
	<path class="st3" d="M382.8,190.3c0,0,0.9-3.4,7.8-1.9"/>
	<path class="st3" d="M397.1,189.4c0,0,4.4-3.7,9.6,0.9"/>
</g>
<g id="freepik--character-1--inject-23">
	<rect x="179.8" y="147.5" class="st11" width="139.1" height="115.1"/>
	<path class="st5" d="M308.4,254c-3.5-8.7-7.9-12.6-7.9-12.6l-34-18l-15.3-2.4v-0.1l-0.4,0.1l-0.4-0.1v0.1l-15.3,2.4l-33.9,18
		c0,0-4.4,3.9-7.9,12.6l-3.5,8.7h122.1L308.4,254z"/>
	<line class="st3" x1="251.9" y1="234.5" x2="251.9" y2="260.8"/>
	<path class="st3" d="M204.7,244.9c0,0,5,12,5.4,17.6"/>
	<path class="st3" d="M296.6,244.6c0,0-6.6,10.6-8.9,17.8"/>
	<ellipse class="st4" cx="251.7" cy="178.5" rx="32.9" ry="30.5"/>
	<polygon class="st13" points="237,206.8 237.8,219 251.7,233.9 265.6,220 265.6,207.6 250.9,210.7 	"/>
	<polygon class="st4" points="244.7,208.9 237,206.8 237.8,219 238.2,219.4 251.9,215.8 	"/>
	<path class="st13" d="M234.9,187.5c0,0-3.8-2.7-3.8,2.4c0.1,3.1,1.4,6.1,3.8,8.1V187.5z"/>
	<path class="st13" d="M267.4,187.5c0,0,3.8-2.7,3.8,2.4c-0.1,3.1-1.4,6.1-3.8,8.1V187.5z"/>
	<path class="st13" d="M234.9,182.4c0,0-0.5,20,1.1,24.3s10.8,10,14.3,10.8s14.6-5.7,16.5-10s1.1-28.4,1.1-28.4s-1.9-11.4-15.7-11.9
		S235.5,175.7,234.9,182.4z"/>
	<path class="st3" d="M247.4,199.7c0,0-0.5,0.8,1.1,1.9s5.4,2.2,7.6-1.4"/>
	<path class="st3" d="M245.5,204.6c0,0,6.2,2.4,12.1,0"/>
	<path class="st10" d="M244.9,189.1c0,1.1-0.6,2-1.3,2s-1.3-0.9-1.3-2s0.6-2,1.3-2S244.9,188,244.9,189.1z"/>
	<path class="st10" d="M260.2,189.1c0,1.1-0.6,2-1.3,2s-1.3-0.9-1.3-2s0.6-2,1.3-2S260.2,188,260.2,189.1z"/>
	<path class="st3" d="M248,185.7h-10.6c0,0-2.1,0.5-1.1,5.1c0.7,3.1,8.4,2.4,10,2.4c3.1,0,3.6-4,3.1-6.4
		C249.3,186.2,248.7,185.7,248,185.7z"/>
	<path class="st3" d="M254.6,185.7h10.6c0,0,2.2,0.5,1.1,5.1c-0.7,3.1-8.4,2.4-10,2.4c-3.1,0-3.6-4-3.1-6.4
		C253.3,186.2,253.9,185.7,254.6,185.7z"/>
	<line class="st3" x1="248.5" y1="185.9" x2="253.8" y2="185.9"/>
	<path class="st3" d="M249.7,187.9c0,0,1.2-2,3.3,0"/>
	<line class="st3" x1="237.4" y1="185.7" x2="235" y2="187.1"/>
	<line class="st3" x1="265.7" y1="186" x2="268.2" y2="187.4"/>
	<path class="st14" d="M255.2,184.6c0,0,3.1-2.3,9.1,0"/>
	<path class="st14" d="M248.2,184.6c0,0-5-2.3-9.7,0"/>
	<polygon class="st5" points="237.6,215.7 251.7,233.9 244.7,242.2 233.3,224.6 	"/>
	<polygon class="st5" points="251.9,234.5 260.4,243 271,224.4 266,217.3 	"/>
</g>
</svg>
