<svg width="122" height="24" viewBox="0 0 122 24" fill="none" xmlns="http://www.w3.org/2000/svg">
<path d="M62.8516 19.1992C64.4453 19.1992 66.0039 18.3672 66.7188 17.0195H66.7773V19H69.5898V10.4453C69.5898 7.94922 67.5859 6.32031 64.5039 6.32031C61.3398 6.32031 59.3594 7.98438 59.2305 10.3047H61.9375C62.125 9.27344 63.0039 8.60547 64.3867 8.60547C65.8281 8.60547 66.707 9.35547 66.707 10.6562V11.5469L63.4258 11.7344C60.4023 11.9219 58.7031 13.2461 58.7031 15.4492C58.7031 17.6875 60.4492 19.1992 62.8516 19.1992ZM63.7305 16.9961C62.4648 16.9961 61.6211 16.3516 61.6211 15.332C61.6211 14.3477 62.4297 13.7148 63.8359 13.6211L66.707 13.4453V14.3945C66.707 15.8945 65.3828 16.9961 63.7305 16.9961Z" fill="black"/>
<path d="M71.9453 19H74.8633V11.3945C74.8633 9.89453 75.8477 8.80469 77.2539 8.80469C78.6133 8.80469 79.457 9.66016 79.457 11.043V19H82.293V11.3242C82.293 9.83594 83.2539 8.80469 84.6602 8.80469C86.0898 8.80469 86.8867 9.67188 86.8867 11.1953V19H89.8047V10.4805C89.8047 7.99609 88.1992 6.34375 85.75 6.34375C83.957 6.34375 82.4805 7.30469 81.8828 8.83984H81.8125C81.3555 7.24609 80.1016 6.34375 78.3438 6.34375C76.6562 6.34375 75.3438 7.29297 74.8047 8.73438H74.7461V6.57812H71.9453V19Z" fill="black"/>
<path d="M93.6719 4.70312C94.5625 4.70312 95.2656 3.98828 95.2656 3.12109C95.2656 2.24219 94.5625 1.53906 93.6719 1.53906C92.7812 1.53906 92.0664 2.24219 92.0664 3.12109C92.0664 3.98828 92.7812 4.70312 93.6719 4.70312ZM92.2188 19H95.1367V6.57812H92.2188V19Z" fill="black"/>
<path d="M97.3633 10.1406C97.3633 11.9805 98.5586 13.1523 100.938 13.6797L103 14.1367C104.301 14.4297 104.746 14.8516 104.746 15.6016C104.746 16.5273 103.867 17.1133 102.449 17.1133C100.973 17.1133 100.141 16.5039 99.918 15.2969H97.0469C97.2812 17.6992 99.2031 19.2461 102.449 19.2461C105.496 19.2461 107.652 17.6641 107.652 15.3203C107.652 13.5156 106.656 12.5195 104.078 11.9453L102.016 11.4883C100.715 11.1953 100.199 10.7031 100.199 9.98828C100.199 9.07422 101.055 8.46484 102.344 8.46484C103.691 8.46484 104.523 9.17969 104.641 10.3047H107.359C107.289 7.94922 105.367 6.32031 102.344 6.32031C99.3438 6.32031 97.3633 7.86719 97.3633 10.1406Z" fill="black"/>
<path d="M115.012 19.2461C118.656 19.2461 121.023 16.8203 121.023 12.7891C121.023 8.76953 118.633 6.32031 115.012 6.32031C111.391 6.32031 109 8.78125 109 12.7891C109 16.8203 111.367 19.2461 115.012 19.2461ZM115.012 16.9375C113.16 16.9375 111.965 15.4375 111.965 12.7891C111.965 10.1523 113.172 8.64062 115.012 8.64062C116.863 8.64062 118.059 10.1523 118.059 12.7891C118.059 15.4375 116.863 16.9375 115.012 16.9375Z" fill="black"/>
<path d="M33.2502 1.139C34.7689 -0.379666 37.2311 -0.379669 38.7498 1.139L46.861 9.2502C48.3797 10.7689 48.3797 13.2311 46.861 14.7498L38.7498 22.861C37.2311 24.3797 34.7689 24.3797 33.2502 22.861L25.139 14.7498C23.6203 13.2311 23.6203 10.7689 25.139 9.2502L33.2502 1.139Z" fill="#047857"/>
<path d="M21.2502 1.139C22.7689 -0.379666 25.2311 -0.379669 26.7498 1.139L34.861 9.2502C36.3797 10.7689 36.3797 13.2311 34.861 14.7498L26.7498 22.861C25.2311 24.3797 22.7689 24.3797 21.2502 22.861L13.139 14.7498C11.6203 13.2311 11.6203 10.7689 13.139 9.2502L21.2502 1.139Z" fill="#065F46"/>
<path d="M9.2502 1.139C10.7689 -0.379666 13.2311 -0.379669 14.7498 1.139L22.861 9.2502C24.3797 10.7689 24.3797 13.2311 22.861 14.7498L14.7498 22.861C13.2311 24.3797 10.7689 24.3797 9.2502 22.861L1.139 14.7498C-0.379666 13.2311 -0.379669 10.7689 1.139 9.2502L9.2502 1.139Z" fill="#064E3B"/>
</svg>
